
#define editicon_width 60
#define editicon_height 60
#define editicon_x_hot -1
#define editicon_y_hot -1
static unsigned char editicon_bits[] = {
   0x00, 0x00, 0x00, 0x00, 0x00, 0x00, 0x00, 0x00, 0x00, 0x00, 0x00, 0x00,
   0x00, 0x00, 0x00, 0x00, 0xf0, 0xff, 0xff, 0xff, 0xff, 0x0f, 0x00, 0x00,
   0x28, 0x00, 0x00, 0x00, 0x00, 0x08, 0x00, 0x00, 0x28, 0x00, 0x00, 0x00,
   0x00, 0x08, 0x00, 0x00, 0x28, 0x46, 0x00, 0x10, 0x80, 0x08, 0x00, 0x00,
   0x28, 0x49, 0x00, 0x10, 0x43, 0x09, 0x00, 0x00, 0x28, 0xc9, 0x61, 0x9c,
   0x44, 0x08, 0x00, 0x00, 0x28, 0x4f, 0x12, 0x92, 0xe7, 0x08, 0x00, 0x00,
   0x28, 0x49, 0x12, 0x92, 0x40, 0x08, 0x00, 0x00, 0x28, 0xc9, 0x61, 0x1c,
   0x43, 0x08, 0x00, 0x00, 0x28, 0x00, 0x00, 0x00, 0x00, 0x08, 0x00, 0x00,
   0x28, 0x00, 0x00, 0x00, 0x00, 0x08, 0x00, 0x00, 0x28, 0x40, 0x10, 0x12,
   0x04, 0x08, 0x00, 0x00, 0x28, 0x40, 0x00, 0x90, 0x04, 0x08, 0x00, 0x00,
   0x28, 0xc6, 0x11, 0x52, 0xe4, 0x0b, 0x00, 0x00, 0x28, 0x49, 0x12, 0x32,
   0xa4, 0x0a, 0x00, 0x00, 0x28, 0x49, 0x12, 0x52, 0xa4, 0x0a, 0x00, 0x00,
   0x28, 0x46, 0x12, 0x92, 0xa4, 0x0a, 0x00, 0x00, 0x28, 0x08, 0x00, 0x02,
   0x00, 0x08, 0x00, 0x00, 0x28, 0x09, 0x40, 0x02, 0x00, 0x08, 0x00, 0x00,
   0x28, 0x06, 0x80, 0x01, 0x00, 0x08, 0x00, 0x00, 0x28, 0x00, 0x00, 0x00,
   0x00, 0x08, 0x00, 0x00, 0x28, 0x86, 0x71, 0x18, 0x9c, 0x0b, 0x00, 0x00,
   0x28, 0x49, 0x92, 0x24, 0x44, 0x08, 0x00, 0x00, 0x28, 0x49, 0x92, 0x24,
   0x84, 0x09, 0x00, 0x00, 0x28, 0x89, 0x71, 0x38, 0x04, 0x0a, 0x00, 0x00,
   0x28, 0x00, 0x10, 0xa0, 0xc4, 0x09, 0x00, 0x00, 0x28, 0x00, 0x10, 0x60,
   0x00, 0x08, 0x00, 0x00, 0x28, 0x02, 0x10, 0x20, 0x00, 0x08, 0x00, 0x00,
   0x28, 0x02, 0x00, 0x00, 0x00, 0x08, 0x00, 0x00, 0x28, 0x27, 0x29, 0x95,
   0x24, 0x09, 0x00, 0x00, 0x28, 0x22, 0x29, 0x15, 0x23, 0x09, 0x00, 0x00,
   0x28, 0x22, 0x29, 0x15, 0x23, 0x09, 0x00, 0x00, 0x28, 0xc2, 0x11, 0x8a,
   0xc4, 0x09, 0x00, 0x00, 0x28, 0x00, 0x00, 0x00, 0x00, 0x09, 0x00, 0x00,
   0x28, 0x00, 0x00, 0x00, 0x00, 0x09, 0x00, 0x00, 0x28, 0x00, 0x00, 0x00,
   0xc0, 0x08, 0x00, 0x00, 0x28, 0x00, 0x00, 0x00, 0x00, 0x08, 0x00, 0x00,
   0x28, 0x0f, 0x00, 0x00, 0x00, 0x08, 0x00, 0x00, 0x28, 0x04, 0x00, 0x00,
   0x00, 0x08, 0x00, 0x00, 0x28, 0x02, 0x00, 0x00, 0x00, 0x08, 0x00, 0x00,
   0x28, 0x0f, 0x00, 0x00, 0x00, 0x08, 0x00, 0x00, 0x28, 0x00, 0x00, 0x00,
   0x00, 0x08, 0x00, 0x00, 0x28, 0x00, 0x00, 0x00, 0x00, 0x08, 0x00, 0x00,
   0x28, 0x00, 0x00, 0x00, 0x00, 0x08, 0x00, 0x00, 0x28, 0x00, 0x00, 0x00,
   0x00, 0x08, 0x00, 0x00, 0xe8, 0xff, 0xff, 0xff, 0xff, 0x0f, 0x00, 0x00,
   0x18, 0x00, 0x00, 0x00, 0x00, 0x04, 0x00, 0x00, 0xf8, 0xff, 0xff, 0xff,
   0xff, 0x03, 0x00, 0x00, 0x00, 0x00, 0x00, 0x00, 0x00, 0x00, 0x00, 0x00,
   0x00, 0x00, 0x00, 0x00, 0x00, 0x00, 0x00, 0x00, 0x00, 0x00, 0x00, 0x00,
   0x00, 0x00, 0x00, 0x00, 0x00, 0x00, 0xcf, 0x71, 0x3e, 0x00, 0x00, 0x00,
   0x00, 0x00, 0x41, 0x22, 0x08, 0x00, 0x00, 0x00, 0x00, 0x00, 0x41, 0x22,
   0x08, 0x00, 0x00, 0x00, 0x00, 0x00, 0x47, 0x22, 0x08, 0x00, 0x00, 0x00,
   0x00, 0x00, 0x41, 0x22, 0x08, 0x00, 0x00, 0x00, 0x00, 0x00, 0x41, 0x22,
   0x08, 0x00, 0x00, 0x00, 0x00, 0x00, 0xcf, 0x71, 0x08, 0x00, 0x00, 0x00};
