
#define shellicon_width 60
#define shellicon_height 60
static unsigned char shellicon_bits[] = {
   0x00, 0x00, 0x00, 0x00, 0x00, 0x00, 0x00, 0x00, 0x00, 0x00, 0x00, 0x00,
   0x00, 0x00, 0x00, 0x00, 0xf8, 0xff, 0xff, 0xff, 0xff, 0xff, 0xff, 0x01,
   0x08, 0x00, 0x00, 0x00, 0x00, 0x00, 0x00, 0x01, 0x08, 0x00, 0x00, 0x00,
   0x00, 0x00, 0x00, 0x01, 0x08, 0x00, 0x00, 0x00, 0x00, 0x00, 0x00, 0x01,
   0x08, 0x00, 0x00, 0x00, 0x00, 0x00, 0x00, 0x01, 0x08, 0x00, 0x00, 0x00,
   0x00, 0x00, 0x00, 0x01, 0x08, 0x00, 0x00, 0x00, 0x00, 0x00, 0x00, 0x01,
   0x08, 0x00, 0x00, 0x00, 0x00, 0x00, 0x00, 0x01, 0x08, 0x00, 0x00, 0x00,
   0x00, 0x00, 0x00, 0x01, 0x08, 0x00, 0x00, 0x00, 0x00, 0x00, 0x00, 0x01,
   0x08, 0x00, 0x00, 0x00, 0x00, 0x00, 0x00, 0x01, 0x08, 0x00, 0x00, 0x00,
   0x00, 0x00, 0x00, 0x01, 0x08, 0x00, 0x00, 0x00, 0x00, 0x00, 0x00, 0x01,
   0x08, 0x00, 0x00, 0x00, 0x00, 0x00, 0x00, 0x01, 0x08, 0x00, 0x00, 0x00,
   0x00, 0x00, 0x00, 0x01, 0x08, 0x00, 0x00, 0x00, 0x00, 0x00, 0x00, 0x01,
   0x08, 0x00, 0x00, 0x00, 0x00, 0x00, 0x00, 0x01, 0x08, 0x00, 0x00, 0x00,
   0x00, 0x00, 0x00, 0x01, 0x08, 0x00, 0x00, 0x00, 0x00, 0x00, 0x00, 0x01,
   0x08, 0x00, 0x00, 0x00, 0x00, 0x00, 0x00, 0x01, 0x08, 0x00, 0x00, 0x00,
   0x00, 0x00, 0x00, 0x01, 0x08, 0x00, 0x00, 0x00, 0x00, 0x00, 0x00, 0x01,
   0x08, 0x00, 0x00, 0x00, 0x00, 0x00, 0x00, 0x01, 0x08, 0x00, 0x00, 0x00,
   0x00, 0x00, 0x00, 0x01, 0x08, 0x00, 0x00, 0x00, 0x00, 0x00, 0x00, 0x01,
   0x08, 0x00, 0x00, 0x00, 0x00, 0x00, 0x00, 0x01, 0x08, 0x00, 0x00, 0x00,
   0x00, 0x00, 0x00, 0x01, 0x08, 0x00, 0x00, 0x00, 0x00, 0x00, 0x00, 0x01,
   0x08, 0x00, 0x00, 0x00, 0x00, 0x00, 0x00, 0x01, 0x88, 0x00, 0x10, 0x80,
   0x00, 0x00, 0x10, 0x01, 0xc8, 0x03, 0x10, 0x40, 0x92, 0x35, 0x88, 0x01,
   0xa8, 0xe0, 0x1c, 0x20, 0x52, 0x0c, 0x44, 0x01, 0xc8, 0x11, 0x12, 0x10,
   0x92, 0x04, 0x42, 0x01, 0x88, 0x12, 0x12, 0x08, 0x12, 0x05, 0x41, 0x01,
   0xe8, 0xe1, 0x1c, 0x04, 0xcc, 0x84, 0x40, 0x01, 0x88, 0x00, 0x00, 0x00,
   0x00, 0x00, 0x00, 0x01, 0x08, 0x00, 0x00, 0x00, 0x00, 0x00, 0x00, 0x01,
   0xf8, 0xff, 0xff, 0xff, 0xff, 0xff, 0xff, 0x01, 0x08, 0x00, 0x00, 0x00,
   0x00, 0x00, 0x00, 0x01, 0x88, 0x00, 0x00, 0x00, 0x00, 0x00, 0x00, 0x01,
   0xc8, 0x03, 0x00, 0x00, 0x00, 0x00, 0x00, 0x01, 0xa8, 0x00, 0x00, 0x00,
   0x00, 0x00, 0x00, 0x01, 0xc8, 0x01, 0x00, 0x00, 0x00, 0x00, 0x00, 0x01,
   0x88, 0x02, 0x00, 0x00, 0x00, 0x00, 0x00, 0x01, 0xe8, 0x01, 0x00, 0x00,
   0x00, 0x00, 0x00, 0x01, 0x88, 0x00, 0x00, 0x00, 0x00, 0x00, 0x00, 0x01,
   0x08, 0x00, 0x00, 0x00, 0x00, 0x00, 0x00, 0x01, 0xf8, 0xff, 0xff, 0xff,
   0xff, 0xff, 0xff, 0x01, 0x00, 0x00, 0x00, 0x00, 0x00, 0x00, 0x00, 0x00,
   0x00, 0x00, 0x00, 0x00, 0x00, 0x00, 0x00, 0x00, 0x80, 0xf1, 0x00, 0x4e,
   0xf2, 0x04, 0x01, 0x00, 0x40, 0x12, 0x00, 0x41, 0x12, 0x04, 0x01, 0x00,
   0x40, 0x10, 0x00, 0x41, 0x12, 0x04, 0x01, 0x00, 0x40, 0x70, 0x00, 0xc6,
   0x73, 0x04, 0x01, 0x00, 0x40, 0x10, 0x00, 0x48, 0x12, 0x04, 0x01, 0x00,
   0x40, 0x12, 0x00, 0x48, 0x12, 0x04, 0x01, 0x00, 0x80, 0xf1, 0x00, 0x47,
   0xf2, 0x3c, 0x0f, 0x00, 0x00, 0x00, 0x00, 0x00, 0x00, 0x00, 0x00, 0x00};
